<?xml version="1.0" encoding="UTF-8"?>
<!DOCTYPE svg PUBLIC "-//W3C//DTD SVG 1.1//EN" "http://www.w3.org/Graphics/SVG/1.1/DTD/svg11.dtd">
<svg xmlns="http://www.w3.org/2000/svg" version="1.1" width="750px" height="200px" style="shape-rendering:geometricPrecision; text-rendering:geometricPrecision; image-rendering:optimizeQuality; fill-rule:evenodd; clip-rule:evenodd" xmlns:xlink="http://www.w3.org/1999/xlink">
<g><path style="opacity:1" fill="#04c75a" d="M 8.5,-0.5 C 252.5,-0.5 496.5,-0.5 740.5,-0.5C 741.987,0.803551 743.654,1.97022 745.5,3C 746.697,5.01533 748.03,6.84866 749.5,8.5C 749.5,69.1667 749.5,129.833 749.5,190.5C 748.196,191.987 747.03,193.654 746,195.5C 743.985,196.697 742.151,198.03 740.5,199.5C 496.5,199.5 252.5,199.5 8.5,199.5C 7.01307,198.196 5.3464,197.03 3.5,196C 2.30342,193.985 0.970083,192.151 -0.5,190.5C -0.5,129.833 -0.5,69.1667 -0.5,8.5C 0.803551,7.01307 1.97022,5.3464 3,3.5C 5.01533,2.30342 6.84866,0.970083 8.5,-0.5 Z"/></g>
<g><path style="opacity:1" fill="#fefffe" d="M 289.5,67.5 C 291.167,67.5 292.833,67.5 294.5,67.5C 294.5,88.5 294.5,109.5 294.5,130.5C 292.833,130.5 291.167,130.5 289.5,130.5C 289.5,109.5 289.5,88.5 289.5,67.5 Z"/></g>
<g><path style="opacity:1" fill="#b5eecf" d="M 289.5,67.5 C 291.265,66.5386 293.265,66.2053 295.5,66.5C 295.831,88.0065 295.497,109.34 294.5,130.5C 294.5,109.5 294.5,88.5 294.5,67.5C 292.833,67.5 291.167,67.5 289.5,67.5 Z"/></g>
<g><path style="opacity:1" fill="#fefffe" d="M 347.5,67.5 C 349.167,67.5 350.833,67.5 352.5,67.5C 352.5,88.5 352.5,109.5 352.5,130.5C 350.833,130.5 349.167,130.5 347.5,130.5C 347.5,109.5 347.5,88.5 347.5,67.5 Z"/></g>
<g><path style="opacity:1" fill="#a9ebc6" d="M 347.5,67.5 C 349.265,66.5386 351.265,66.2053 353.5,66.5C 353.831,88.0065 353.497,109.34 352.5,130.5C 352.5,109.5 352.5,88.5 352.5,67.5C 350.833,67.5 349.167,67.5 347.5,67.5 Z"/></g>
<g><path style="opacity:1" fill="#fefefe" d="M 407.5,67.5 C 409.167,67.5 410.833,67.5 412.5,67.5C 412.5,88.5 412.5,109.5 412.5,130.5C 410.833,130.5 409.167,130.5 407.5,130.5C 407.5,118.5 407.5,106.5 407.5,94.5C 402.5,94.5 397.5,94.5 392.5,94.5C 391.51,100.31 391.177,106.31 391.5,112.5C 382.5,112.5 373.5,112.5 364.5,112.5C 364.5,99.1667 364.5,85.8333 364.5,72.5C 366.167,72.5 367.833,72.5 369.5,72.5C 369.5,77.5 369.5,82.5 369.5,87.5C 375.167,87.5 380.833,87.5 386.5,87.5C 386.5,82.5 386.5,77.5 386.5,72.5C 388.167,72.5 389.833,72.5 391.5,72.5C 391.178,78.358 391.511,84.0247 392.5,89.5C 397.5,89.5 402.5,89.5 407.5,89.5C 407.5,82.1667 407.5,74.8333 407.5,67.5 Z"/></g>
<g><path style="opacity:1" fill="#a9ebc6" d="M 407.5,67.5 C 409.265,66.5386 411.265,66.2053 413.5,66.5C 413.831,88.0065 413.497,109.34 412.5,130.5C 412.5,109.5 412.5,88.5 412.5,67.5C 410.833,67.5 409.167,67.5 407.5,67.5 Z"/></g>
<g><path style="opacity:1" fill="#86e3ae" d="M 599.5,66.5 C 601.833,66.5 604.167,66.5 606.5,66.5C 606.5,82.1667 606.5,97.8333 606.5,113.5C 604.167,113.5 601.833,113.5 599.5,113.5C 599.5,97.8333 599.5,82.1667 599.5,66.5 Z"/></g>
<g><path style="opacity:1" fill="#fefffe" d="M 600.5,67.5 C 602.167,67.5 603.833,67.5 605.5,67.5C 605.5,82.5 605.5,97.5 605.5,112.5C 603.833,112.5 602.167,112.5 600.5,112.5C 600.5,97.5 600.5,82.5 600.5,67.5 Z"/></g>
<g><path style="opacity:1" fill="#fefefe" d="M 280.5,67.5 C 280.5,87.8333 280.5,108.167 280.5,128.5C 278.833,128.5 277.167,128.5 275.5,128.5C 275.828,116.322 275.495,104.322 274.5,92.5C 270.167,92.5 265.833,92.5 261.5,92.5C 261.5,90.8333 261.5,89.1667 261.5,87.5C 266.167,87.5 270.833,87.5 275.5,87.5C 275.5,80.8333 275.5,74.1667 275.5,67.5C 277.167,67.5 278.833,67.5 280.5,67.5 Z"/></g>
<g><path style="opacity:1" fill="#77e0a5" d="M 280.5,67.5 C 281.497,87.9933 281.831,108.66 281.5,129.5C 279.167,129.5 276.833,129.5 274.5,129.5C 274.5,117.167 274.5,104.833 274.5,92.5C 275.495,104.322 275.828,116.322 275.5,128.5C 277.167,128.5 278.833,128.5 280.5,128.5C 280.5,108.167 280.5,87.8333 280.5,67.5 Z"/></g>
<g><path style="opacity:1" fill="#fefefe" d="M 150.5,99.5 C 150.217,98.7109 149.717,98.0442 149,97.5C 148.5,108.161 148.333,118.828 148.5,129.5C 142.167,129.5 135.833,129.5 129.5,129.5C 129.5,109.5 129.5,89.5 129.5,69.5C 135.842,69.3338 142.175,69.5005 148.5,70C 155.298,80.4296 162.464,90.5963 170,100.5C 170.5,90.172 170.666,79.8387 170.5,69.5C 176.833,69.5 183.167,69.5 189.5,69.5C 189.5,89.5 189.5,109.5 189.5,129.5C 183.491,129.666 177.491,129.499 171.5,129C 164.281,119.288 157.281,109.454 150.5,99.5 Z"/></g>
<g><path style="opacity:1" fill="#f7fdf9" d="M 567.5,69.5 C 583.712,69.1978 590.212,76.8645 587,92.5C 581.996,100.397 574.83,103.231 565.5,101C 556.97,96.774 553.803,89.9407 556,80.5C 558.437,75.2262 562.271,71.5595 567.5,69.5 Z"/></g>
<g><path style="opacity:1" fill="#f6fdf8" d="M 314.5,70.5 C 325.179,70.0075 331.679,75.0075 334,85.5C 335.375,93.8572 334.375,101.857 331,109.5C 319.8,120.056 310.8,118.39 304,104.5C 301.778,96.0554 302.111,87.722 305,79.5C 307.406,75.5915 310.572,72.5915 314.5,70.5 Z"/></g>
<g><path style="opacity:1" fill="#fbfefc" d="M 483.5,90.5 C 472.167,90.5 460.833,90.5 449.5,90.5C 449.5,93.8333 449.5,97.1667 449.5,100.5C 461.5,100.5 473.5,100.5 485.5,100.5C 485.5,102.167 485.5,103.833 485.5,105.5C 479.167,105.5 472.833,105.5 466.5,105.5C 466.5,109.167 466.5,112.833 466.5,116.5C 475.5,116.5 484.5,116.5 493.5,116.5C 506.833,116.5 520.167,116.5 533.5,116.5C 533.5,115.167 533.5,113.833 533.5,112.5C 535.265,102.243 536.265,91.9093 536.5,81.5C 537.434,80.4324 537.768,79.099 537.5,77.5C 525.833,77.5 514.167,77.5 502.5,77.5C 502.5,75.8333 502.5,74.1667 502.5,72.5C 515.833,72.5 529.167,72.5 542.5,72.5C 542.102,85.8811 541.102,99.2144 539.5,112.5C 538.566,113.568 538.232,114.901 538.5,116.5C 543.167,116.5 547.833,116.5 552.5,116.5C 552.5,117.833 552.5,119.167 552.5,120.5C 513.167,120.833 473.833,121.167 434.5,121.5C 434.5,120.167 434.5,118.833 434.5,117.5C 443.349,117.826 452.016,117.493 460.5,116.5C 460.5,112.833 460.5,109.167 460.5,105.5C 455.36,104.512 450.026,104.179 444.5,104.5C 444.5,98.5 444.5,92.5 444.5,86.5C 455.679,86.8279 466.679,86.4946 477.5,85.5C 477.5,82.5 477.5,79.5 477.5,76.5C 466.167,76.5 454.833,76.5 443.5,76.5C 443.5,74.8333 443.5,73.1667 443.5,71.5C 456.833,71.5 470.167,71.5 483.5,71.5C 483.5,77.8333 483.5,84.1667 483.5,90.5 Z"/></g>
<g><path style="opacity:1" fill="#f3fcf7" d="M 243.5,71.5 C 245.5,71.5 247.5,71.5 249.5,71.5C 249.5,83.5 249.5,95.5 249.5,107.5C 256.551,107.272 263.551,106.605 270.5,105.5C 270.5,107.167 270.5,108.833 270.5,110.5C 261.582,112.103 252.582,112.77 243.5,112.5C 243.5,98.8333 243.5,85.1667 243.5,71.5 Z"/></g>
<g><path style="opacity:1" fill="#aeecca" d="M 386.5,72.5 C 388.265,71.5386 390.265,71.2053 392.5,71.5C 392.5,77.5 392.5,83.5 392.5,89.5C 391.511,84.0247 391.178,78.358 391.5,72.5C 389.833,72.5 388.167,72.5 386.5,72.5 Z"/></g>
<g><path style="opacity:1" fill="#1cc960" d="M 569.5,74.5 C 579.292,74.7932 583.459,79.7932 582,89.5C 578.96,95.6026 574.126,97.7693 567.5,96C 561.604,92.1345 560.104,86.9678 563,80.5C 564.494,77.6865 566.66,75.6865 569.5,74.5 Z"/></g>
<g><path style="opacity:1" fill="#11c85d" d="M 314.5,76.5 C 321.586,74.9554 326.086,77.6221 328,84.5C 329.126,92.0454 328.46,99.3788 326,106.5C 317.41,113.285 311.744,111.285 309,100.5C 308.333,95.5 308.333,90.5 309,85.5C 309.837,81.8426 311.67,78.8426 314.5,76.5 Z"/></g>
<g><path style="opacity:1" fill="#8be4b3" d="M 502.5,77.5 C 514.167,77.5 525.833,77.5 537.5,77.5C 537.768,79.099 537.434,80.4324 536.5,81.5C 536.5,80.5 536.5,79.5 536.5,78.5C 524.988,78.8281 513.654,78.4948 502.5,77.5 Z"/></g>
<g><path style="opacity:1" fill="#7be1a8" d="M 150.5,99.5 C 149.833,109.5 149.167,119.5 148.5,129.5C 148.333,118.828 148.5,108.161 149,97.5C 149.717,98.0442 150.217,98.7109 150.5,99.5 Z"/></g>
<g><path style="opacity:1" fill="#5eda95" d="M 483.5,90.5 C 472.679,91.4946 461.679,91.8279 450.5,91.5C 450.5,94.1667 450.5,96.8333 450.5,99.5C 462.345,99.1717 474.012,99.5051 485.5,100.5C 473.5,100.5 461.5,100.5 449.5,100.5C 449.5,97.1667 449.5,93.8333 449.5,90.5C 460.833,90.5 472.167,90.5 483.5,90.5 Z"/></g>
<g><path style="opacity:1" fill="#afecca" d="M 477.5,85.5 C 466.679,86.4946 455.679,86.8279 444.5,86.5C 444.5,92.5 444.5,98.5 444.5,104.5C 450.026,104.179 455.36,104.512 460.5,105.5C 454.833,105.5 449.167,105.5 443.5,105.5C 443.5,98.8333 443.5,92.1667 443.5,85.5C 454.833,85.5 466.167,85.5 477.5,85.5 Z"/></g>
<g><path style="opacity:1" fill="#3fd380" d="M 369.5,92.5 C 375.167,92.5 380.833,92.5 386.5,92.5C 386.5,97.8333 386.5,103.167 386.5,108.5C 380.833,108.5 375.167,108.5 369.5,108.5C 369.5,103.167 369.5,97.8333 369.5,92.5 Z"/></g>
<g><path style="opacity:1" fill="#03c759" d="M 370.5,93.5 C 375.5,93.5 380.5,93.5 385.5,93.5C 385.5,98.1667 385.5,102.833 385.5,107.5C 380.5,107.5 375.5,107.5 370.5,107.5C 370.5,102.833 370.5,98.1667 370.5,93.5 Z"/></g>
<g><path style="opacity:1" fill="#fcfefd" d="M 566.5,109.5 C 568.5,109.5 570.5,109.5 572.5,109.5C 572.5,114.5 572.5,119.5 572.5,124.5C 584.167,124.5 595.833,124.5 607.5,124.5C 607.5,126.167 607.5,127.833 607.5,129.5C 593.833,129.5 580.167,129.5 566.5,129.5C 566.5,122.833 566.5,116.167 566.5,109.5 Z"/></g>
<g><path style="opacity:1" fill="#d2f4e1" d="M 369.5,72.5 C 367.833,72.5 366.167,72.5 364.5,72.5C 364.5,85.8333 364.5,99.1667 364.5,112.5C 373.5,112.5 382.5,112.5 391.5,112.5C 391.177,106.31 391.51,100.31 392.5,94.5C 392.5,100.833 392.5,107.167 392.5,113.5C 382.833,113.5 373.167,113.5 363.5,113.5C 363.5,99.5 363.5,85.5 363.5,71.5C 365.735,71.2053 367.735,71.5386 369.5,72.5 Z"/></g>
<g><path style="opacity:1" fill="#9de8bf" d="M 533.5,112.5 C 533.5,113.833 533.5,115.167 533.5,116.5C 520.167,116.5 506.833,116.5 493.5,116.5C 506.323,115.505 519.323,115.171 532.5,115.5C 532.263,114.209 532.596,113.209 533.5,112.5 Z"/></g>
<g><path style="opacity:1" fill="#99e7bc" d="M 539.5,112.5 C 539.5,113.5 539.5,114.5 539.5,115.5C 544.032,115.182 548.366,115.515 552.5,116.5C 547.833,116.5 543.167,116.5 538.5,116.5C 538.232,114.901 538.566,113.568 539.5,112.5 Z"/></g>
<g><path style="opacity:1" fill="#c9f2db" d="M 460.5,116.5 C 452.016,117.493 443.349,117.826 434.5,117.5C 434.5,118.833 434.5,120.167 434.5,121.5C 433.549,120.081 433.216,118.415 433.5,116.5C 442.5,116.5 451.5,116.5 460.5,116.5 Z"/></g>
</svg>
